<svg class="icon" style="width: 1em;height: 1em;vertical-align: middle;fill: #4f46e5;overflow: hidden;" viewBox="0 0 1024 1024" version="1.1" xmlns="http://www.w3.org/2000/svg" p-id="8869"><path d="M128 384v448h768V384H128z m-32-64h832c9.344 0 17.024 3.008 23.04 8.96 5.952 6.016 8.96 13.696 8.96 23.04v512a31.168 31.168 0 0 1-8.96 23.04 31.168 31.168 0 0 1-23.04 8.96h-832a31.168 31.168 0 0 1-23.04-8.96 31.168 31.168 0 0 1-8.96-23.04v-512c0-9.344 3.008-17.024 8.96-23.04A31.168 31.168 0 0 1 96 320z m64-128h704v64h-704V192zM256 64h512v64H256V64z" fill="#4f46e5" p-id="8870"></path></svg>