<svg class="w-5 h-5 text-indigo-300" fill="#7c4dff" viewBox="0 0 24 24" xmlns="http://www.w3.org/2000/svg">
     <path d="M9.813 5.146a.5.5 0 0 1 .935 0l1.192 3.285 3.285 1.192a.5.5 0 0 1 0 .935l-3.285 1.192-1.192 3.285a.5.5 0 0 1-.935 0l-1.192-3.285-3.285-1.192a.5.5 0 0 1 0-.935l3.285-1.192 1.192-3.285ZM19.083 13a.5.5 0 0 1 .458.29l.417 1.145 1.146.417a.5.5 0 0 1 0 .916l-1.146.417-.417 1.145a.5.5 0 0 1-.916 0l-.417-1.145-1.145-.417a.5.5 0 0 1 0-.916l1.145-.417.417-1.145A.5.5 0 0 1 19.083 13Z" /> 
 </svg>